<?xml version="1.0" encoding="UTF-8"?>
<svg width="6202px" height="4432px" viewBox="0 0 6202 4432" version="1.1" xmlns="http://www.w3.org/2000/svg" xmlns:xlink="http://www.w3.org/1999/xlink" style="background: #FFFFFF;">
    <!-- Generator: Sketch 45.2 (43514) - http://www.bohemiancoding.com/sketch -->
    <title>Rectangle 19</title>
    <desc>Created with Sketch.</desc>
    <defs></defs>
    <g id="FINAL-LOGO" stroke="none" stroke-width="1" fill="none" fill-rule="evenodd">
        <rect id="Rectangle-19" stroke="#979797" stroke-width="4" x="2.98142652" y="2.07740658" width="6196.24174" height="4427.84519" rx="100"></rect>
        <path d="M3.24656187,947 L6190.5,947" id="Line-2" stroke="#4095AA" stroke-width="15" stroke-linecap="square"></path>
        <text id="Archives" font-family="RobotoSlab-Bold, Roboto Slab" font-size="300" font-weight="bold" fill="#4095AA">
            <tspan x="287" y="376">Archives</tspan>
        </text>
        <text id="Academics" font-family="RobotoSlab-Bold, Roboto Slab" font-size="150" font-weight="bold" fill="#4095AA">
            <tspan x="696" y="770">Academics</tspan>
        </text>
        <text id="Social" opacity="0.497678895" font-family="RobotoSlab-Bold, Roboto Slab" font-size="150" font-weight="bold" fill="#4095AA">
            <tspan x="2181" y="770">Social</tspan>
        </text>
        <text id="Clubs" font-family="RobotoSlab-Bold, Roboto Slab" font-size="150" font-weight="bold" fill="#4095AA">
            <tspan x="4704" y="770">Clubs</tspan>
        </text>
        <text id="Athletics-Copy" font-family="RobotoSlab-Bold, Roboto Slab" font-size="150" font-weight="bold" fill="#4095AA">
            <tspan x="3321" y="770">Athletics</tspan>
        </text>
        <g id="Arrow" transform="translate(5931.000000, 241.500000) rotate(90.000000) translate(-5931.000000, -241.500000) translate(5751.500000, 161.500000)">
            <polygon id="Triangle-5" stroke="#4095AA" stroke-width="16" points="187 0.265802097 333 147.265802 41 147.265802"></polygon>
            <rect id="Rectangle-20" fill="#FFFFFF" x="0" y="127.906898" width="359" height="32.0931022"></rect>
        </g>
        <g id="Row" transform="translate(2.000000, 954.000000)">
            <path d="M0.246561868,423 L6187.5,423" id="Line-2-Copy" stroke="#4095AA" stroke-width="15" stroke-linecap="square"></path>
            <rect id="Rectangle-21" fill="#FFFFFF" x="3" y="0" width="6191" height="412.816994"></rect>
            <polygon id="Star" stroke="#979797" fill="#D4AF37" points="5104 236 5045.22147 266.901699 5056.44717 201.45085 5008.89435 155.098301 5074.61074 145.54915 5104 86 5133.38926 145.54915 5199.10565 155.098301 5151.55283 201.45085 5162.77853 266.901699"></polygon>
            <polygon id="Star-Copy" stroke="#979797" fill="#D4AF37" points="5343 236 5284.22147 266.901699 5295.44717 201.45085 5247.89435 155.098301 5313.61074 145.54915 5343 86 5372.38926 145.54915 5438.10565 155.098301 5390.55283 201.45085 5401.77853 266.901699"></polygon>
            <polygon id="Star-Copy-2" stroke="#979797" fill="#D4AF37" points="5582 236 5523.22147 266.901699 5534.44717 201.45085 5486.89435 155.098301 5552.61074 145.54915 5582 86 5611.38926 145.54915 5677.10565 155.098301 5629.55283 201.45085 5640.77853 266.901699"></polygon>
            <polygon id="Star-Copy-3" stroke="#979797" fill="#D4AF37" points="5821 236 5762.22147 266.901699 5773.44717 201.45085 5725.89435 155.098301 5791.61074 145.54915 5821 86 5850.38926 145.54915 5916.10565 155.098301 5868.55283 201.45085 5879.77853 266.901699"></polygon>
            <polygon id="Star-Copy-4" stroke="#979797" fill="#D4AF37" points="6060 236 6001.22147 266.901699 6012.44717 201.45085 5964.89435 155.098301 6030.61074 145.54915 6060 86 6089.38926 145.54915 6155.10565 155.098301 6107.55283 201.45085 6118.77853 266.901699"></polygon>
            <text id="What-is-the-social-l" font-family="Raleway-Medium, Raleway" font-size="150" font-weight="400" fill="#000000">
                <tspan x="178" y="256">What is the social life like at Babson?</tspan>
            </text>
        </g>
        <g id="Row-Copy" transform="translate(2.000000, 1385.000000)">
            <path d="M0.246561868,423 L6187.5,423" id="Line-2-Copy" stroke="#4095AA" stroke-width="15" stroke-linecap="square"></path>
            <rect id="Rectangle-21" fill="#FFFFFF" x="3" y="0" width="6191" height="412.816994"></rect>
            <rect id="Rectangle-21-Copy" fill="#FFFFFF" x="3" y="0" width="6191" height="412.816994"></rect>
            <polygon id="Star" stroke="#979797" fill="#D4AF37" points="5104 236 5045.22147 266.901699 5056.44717 201.45085 5008.89435 155.098301 5074.61074 145.54915 5104 86 5133.38926 145.54915 5199.10565 155.098301 5151.55283 201.45085 5162.77853 266.901699"></polygon>
            <polygon id="Star-Copy" stroke="#979797" fill="#D4AF37" points="5343 236 5284.22147 266.901699 5295.44717 201.45085 5247.89435 155.098301 5313.61074 145.54915 5343 86 5372.38926 145.54915 5438.10565 155.098301 5390.55283 201.45085 5401.77853 266.901699"></polygon>
            <polygon id="Star-Copy-2" stroke="#979797" fill="#D4AF37" points="5582 236 5523.22147 266.901699 5534.44717 201.45085 5486.89435 155.098301 5552.61074 145.54915 5582 86 5611.38926 145.54915 5677.10565 155.098301 5629.55283 201.45085 5640.77853 266.901699"></polygon>
            <polygon id="Star-Copy-3" stroke="#979797" fill="#D4AF37" points="5821 236 5762.22147 266.901699 5773.44717 201.45085 5725.89435 155.098301 5791.61074 145.54915 5821 86 5850.38926 145.54915 5916.10565 155.098301 5868.55283 201.45085 5879.77853 266.901699"></polygon>
            <polygon id="Star-Copy-4" stroke="#979797" fill="#D4AF37" points="6060 236 6001.22147 266.901699 6012.44717 201.45085 5964.89435 155.098301 6030.61074 145.54915 6060 86 6089.38926 145.54915 6155.10565 155.098301 6107.55283 201.45085 6118.77853 266.901699"></polygon>
            <text id="Is-a-car-necessary-o" font-family="Raleway-Medium, Raleway" font-size="150" font-weight="400" fill="#000000">
                <tspan x="178" y="256">Is a car necessary on campus?</tspan>
            </text>
        </g>
        <g id="Row-Copy-2" transform="translate(-1.000000, 1819.000000)">
            <path d="M0.246561868,423 L6187.5,423" id="Line-2-Copy" stroke="#4095AA" stroke-width="15" stroke-linecap="square"></path>
            <rect id="Rectangle-21" fill="#FFFFFF" x="3" y="0" width="6191" height="412.816994"></rect>
            <rect id="Rectangle-21-Copy" fill="#FFFFFF" x="3" y="0" width="6191" height="412.816994"></rect>
            <polygon id="Star" stroke="#979797" fill="#D4AF37" points="5104 236 5045.22147 266.901699 5056.44717 201.45085 5008.89435 155.098301 5074.61074 145.54915 5104 86 5133.38926 145.54915 5199.10565 155.098301 5151.55283 201.45085 5162.77853 266.901699"></polygon>
            <polygon id="Star-Copy" stroke="#979797" fill="#D4AF37" points="5343 236 5284.22147 266.901699 5295.44717 201.45085 5247.89435 155.098301 5313.61074 145.54915 5343 86 5372.38926 145.54915 5438.10565 155.098301 5390.55283 201.45085 5401.77853 266.901699"></polygon>
            <polygon id="Star-Copy-2" stroke="#979797" fill="#D4AF37" points="5582 236 5523.22147 266.901699 5534.44717 201.45085 5486.89435 155.098301 5552.61074 145.54915 5582 86 5611.38926 145.54915 5677.10565 155.098301 5629.55283 201.45085 5640.77853 266.901699"></polygon>
            <polygon id="Star-Copy-3" stroke="#979797" fill="#D4AF37" points="5821 236 5762.22147 266.901699 5773.44717 201.45085 5725.89435 155.098301 5791.61074 145.54915 5821 86 5850.38926 145.54915 5916.10565 155.098301 5868.55283 201.45085 5879.77853 266.901699"></polygon>
            <polygon id="Star-Copy-4" stroke="#979797" fill="#D4AF37" points="6060 236 6001.22147 266.901699 6012.44717 201.45085 5964.89435 155.098301 6030.61074 145.54915 6060 86 6089.38926 145.54915 6155.10565 155.098301 6107.55283 201.45085 6118.77853 266.901699"></polygon>
            <text id="Is-the-clubbing-in-B" font-family="Raleway-Medium, Raleway" font-size="150" font-weight="400" fill="#000000">
                <tspan x="178" y="256">Is the clubbing in Boston good? Or do people party on campus?</tspan>
            </text>
        </g>
        <g id="Row-Copy-3" transform="translate(-3.000000, 2685.000000)">
            <path d="M0.246561868,423 L6187.5,423" id="Line-2-Copy" stroke="#4095AA" stroke-width="15" stroke-linecap="square"></path>
            <rect id="Rectangle-21" fill="#FFFFFF" x="3" y="0" width="6191" height="412.816994"></rect>
            <rect id="Rectangle-21-Copy" fill="#FFFFFF" x="3" y="0" width="6191" height="412.816994"></rect>
            <polygon id="Star" stroke="#979797" fill="#D4AF37" points="5104 236 5045.22147 266.901699 5056.44717 201.45085 5008.89435 155.098301 5074.61074 145.54915 5104 86 5133.38926 145.54915 5199.10565 155.098301 5151.55283 201.45085 5162.77853 266.901699"></polygon>
            <polygon id="Star-Copy" stroke="#979797" fill="#D4AF37" points="5343 236 5284.22147 266.901699 5295.44717 201.45085 5247.89435 155.098301 5313.61074 145.54915 5343 86 5372.38926 145.54915 5438.10565 155.098301 5390.55283 201.45085 5401.77853 266.901699"></polygon>
            <polygon id="Star-Copy-2" stroke="#979797" fill="#D4AF37" points="5582 236 5523.22147 266.901699 5534.44717 201.45085 5486.89435 155.098301 5552.61074 145.54915 5582 86 5611.38926 145.54915 5677.10565 155.098301 5629.55283 201.45085 5640.77853 266.901699"></polygon>
            <polygon id="Star-Copy-3" stroke="#979797" fill="#D4AF37" points="5821 236 5762.22147 266.901699 5773.44717 201.45085 5725.89435 155.098301 5791.61074 145.54915 5821 86 5850.38926 145.54915 5916.10565 155.098301 5868.55283 201.45085 5879.77853 266.901699"></polygon>
            <polygon id="Star-Copy-4" stroke="#979797" fill="#E5E5E5" points="6060 236 6001.22147 266.901699 6012.44717 201.45085 5964.89435 155.098301 6030.61074 145.54915 6060 86 6089.38926 145.54915 6155.10565 155.098301 6107.55283 201.45085 6118.77853 266.901699"></polygon>
            <text id="Is-the-clubbing-in-B" font-family="Raleway-Medium, Raleway" font-size="150" font-weight="400" fill="#000000">
                <tspan x="178" y="256">Is the clubbing in Boston good? Or do people party on campus?</tspan>
            </text>
        </g>
        <g id="Row-Copy-5" transform="translate(-3.000000, 3118.000000)">
            <path d="M0.246561868,423 L6187.5,423" id="Line-2-Copy" stroke="#4095AA" stroke-width="15" stroke-linecap="square"></path>
            <rect id="Rectangle-21" fill="#FFFFFF" x="3" y="0" width="6191" height="412.816994"></rect>
            <rect id="Rectangle-21-Copy" fill="#FFFFFF" x="3" y="0" width="6191" height="412.816994"></rect>
            <rect id="Rectangle-21-Copy-2" fill="#FFFFFF" x="3" y="0" width="6191" height="412.816994"></rect>
            <rect id="Rectangle-21-Copy-3" fill="#FFFFFF" x="3" y="0" width="6191" height="412.816994"></rect>
            <polygon id="Star" stroke="#979797" fill="#D4AF37" points="5104 236 5045.22147 266.901699 5056.44717 201.45085 5008.89435 155.098301 5074.61074 145.54915 5104 86 5133.38926 145.54915 5199.10565 155.098301 5151.55283 201.45085 5162.77853 266.901699"></polygon>
            <polygon id="Star-Copy" stroke="#979797" fill="#D4AF37" points="5343 236 5284.22147 266.901699 5295.44717 201.45085 5247.89435 155.098301 5313.61074 145.54915 5343 86 5372.38926 145.54915 5438.10565 155.098301 5390.55283 201.45085 5401.77853 266.901699"></polygon>
            <polygon id="Star-Copy-2" stroke="#979797" fill="#D4AF37" points="5582 236 5523.22147 266.901699 5534.44717 201.45085 5486.89435 155.098301 5552.61074 145.54915 5582 86 5611.38926 145.54915 5677.10565 155.098301 5629.55283 201.45085 5640.77853 266.901699"></polygon>
            <polygon id="Star-Copy-3" stroke="#979797" fill="#E5E5E5" points="5821 236 5762.22147 266.901699 5773.44717 201.45085 5725.89435 155.098301 5791.61074 145.54915 5821 86 5850.38926 145.54915 5916.10565 155.098301 5868.55283 201.45085 5879.77853 266.901699"></polygon>
            <polygon id="Star-Copy-4" stroke="#979797" fill="#E5E5E5" points="6060 236 6001.22147 266.901699 6012.44717 201.45085 5964.89435 155.098301 6030.61074 145.54915 6060 86 6089.38926 145.54915 6155.10565 155.098301 6107.55283 201.45085 6118.77853 266.901699"></polygon>
            <text id="How-cliquey-is-this" font-family="Raleway-Medium, Raleway" font-size="150" font-weight="400" fill="#000000">
                <tspan x="178" y="256">How cliquey is this school?</tspan>
            </text>
        </g>
        <g id="Row-Copy-6" transform="translate(4.000000, 3551.000000)">
            <path d="M0.246561868,423 L6187.5,423" id="Line-2-Copy" stroke="#4095AA" stroke-width="15" stroke-linecap="square"></path>
            <rect id="Rectangle-21" fill="#FFFFFF" x="3" y="0" width="6191" height="412.816994"></rect>
            <rect id="Rectangle-21-Copy" fill="#FFFFFF" x="3" y="0" width="6191" height="412.816994"></rect>
            <rect id="Rectangle-21-Copy-2" fill="#FFFFFF" x="3" y="0" width="6191" height="412.816994"></rect>
            <rect id="Rectangle-21-Copy-3" fill="#FFFFFF" x="0" y="0" width="6191" height="412.816994"></rect>
            <polygon id="Star" stroke="#979797" fill="#D4AF37" points="5104 236 5045.22147 266.901699 5056.44717 201.45085 5008.89435 155.098301 5074.61074 145.54915 5104 86 5133.38926 145.54915 5199.10565 155.098301 5151.55283 201.45085 5162.77853 266.901699"></polygon>
            <polygon id="Star-Copy" stroke="#979797" fill="#D4AF37" points="5343 236 5284.22147 266.901699 5295.44717 201.45085 5247.89435 155.098301 5313.61074 145.54915 5343 86 5372.38926 145.54915 5438.10565 155.098301 5390.55283 201.45085 5401.77853 266.901699"></polygon>
            <polygon id="Star-Copy-2" stroke="#979797" fill="#E5E5E5" points="5582 236 5523.22147 266.901699 5534.44717 201.45085 5486.89435 155.098301 5552.61074 145.54915 5582 86 5611.38926 145.54915 5677.10565 155.098301 5629.55283 201.45085 5640.77853 266.901699"></polygon>
            <polygon id="Star-Copy-3" stroke="#979797" fill="#E5E5E5" points="5821 236 5762.22147 266.901699 5773.44717 201.45085 5725.89435 155.098301 5791.61074 145.54915 5821 86 5850.38926 145.54915 5916.10565 155.098301 5868.55283 201.45085 5879.77853 266.901699"></polygon>
            <polygon id="Star-Copy-4" stroke="#979797" fill="#E5E5E5" points="6060 236 6001.22147 266.901699 6012.44717 201.45085 5964.89435 155.098301 6030.61074 145.54915 6060 86 6089.38926 145.54915 6155.10565 155.098301 6107.55283 201.45085 6118.77853 266.901699"></polygon>
            <text id="What-are-the-kind-of" font-family="Raleway-Medium, Raleway" font-size="150" font-weight="400" fill="#000000">
                <tspan x="178" y="256">What are the kind of personalities? I’ve heard everyone is type A?</tspan>
            </text>
        </g>
        <g id="Row-Copy-7" transform="translate(-3.000000, 3984.000000)">
            <rect id="Rectangle-21" fill="#FFFFFF" x="3" y="0" width="6191" height="412.816994"></rect>
            <rect id="Rectangle-21-Copy" fill="#FFFFFF" x="3" y="0" width="6191" height="412.816994"></rect>
            <rect id="Rectangle-21-Copy-2" fill="#FFFFFF" x="3" y="0" width="6191" height="412.816994"></rect>
            <rect id="Rectangle-21-Copy-3" fill="#FFFFFF" x="0" y="0" width="6191" height="412.816994"></rect>
            <polygon id="Star" stroke="#979797" fill="#D4AF37" points="5104 236 5045.22147 266.901699 5056.44717 201.45085 5008.89435 155.098301 5074.61074 145.54915 5104 86 5133.38926 145.54915 5199.10565 155.098301 5151.55283 201.45085 5162.77853 266.901699"></polygon>
            <polygon id="Star-Copy" stroke="#979797" fill="#E5E5E5" points="5343 236 5284.22147 266.901699 5295.44717 201.45085 5247.89435 155.098301 5313.61074 145.54915 5343 86 5372.38926 145.54915 5438.10565 155.098301 5390.55283 201.45085 5401.77853 266.901699"></polygon>
            <polygon id="Star-Copy-2" stroke="#979797" fill="#E5E5E5" points="5582 236 5523.22147 266.901699 5534.44717 201.45085 5486.89435 155.098301 5552.61074 145.54915 5582 86 5611.38926 145.54915 5677.10565 155.098301 5629.55283 201.45085 5640.77853 266.901699"></polygon>
            <polygon id="Star-Copy-3" stroke="#979797" fill="#E5E5E5" points="5821 236 5762.22147 266.901699 5773.44717 201.45085 5725.89435 155.098301 5791.61074 145.54915 5821 86 5850.38926 145.54915 5916.10565 155.098301 5868.55283 201.45085 5879.77853 266.901699"></polygon>
            <polygon id="Star-Copy-4" stroke="#979797" fill="#E5E5E5" points="6060 236 6001.22147 266.901699 6012.44717 201.45085 5964.89435 155.098301 6030.61074 145.54915 6060 86 6089.38926 145.54915 6155.10565 155.098301 6107.55283 201.45085 6118.77853 266.901699"></polygon>
            <text id="Is-the-school-good-f" font-family="Raleway-Medium, Raleway" font-size="150" font-weight="400" fill="#000000">
                <tspan x="178" y="256">Is the school good for LGBTQ life?</tspan>
            </text>
        </g>
        <g id="Row-Copy-4" transform="translate(-3.000000, 2252.000000)">
            <path d="M0.246561868,423 L6187.5,423" id="Line-2-Copy" stroke="#4095AA" stroke-width="15" stroke-linecap="square"></path>
            <rect id="Rectangle-21" fill="#FFFFFF" x="3" y="0" width="6191" height="412.816994"></rect>
            <rect id="Rectangle-21-Copy" fill="#FFFFFF" x="3" y="0" width="6191" height="412.816994"></rect>
            <polygon id="Star" stroke="#979797" fill="#D4AF37" points="5104 236 5045.22147 266.901699 5056.44717 201.45085 5008.89435 155.098301 5074.61074 145.54915 5104 86 5133.38926 145.54915 5199.10565 155.098301 5151.55283 201.45085 5162.77853 266.901699"></polygon>
            <polygon id="Star-Copy" stroke="#979797" fill="#D4AF37" points="5343 236 5284.22147 266.901699 5295.44717 201.45085 5247.89435 155.098301 5313.61074 145.54915 5343 86 5372.38926 145.54915 5438.10565 155.098301 5390.55283 201.45085 5401.77853 266.901699"></polygon>
            <polygon id="Star-Copy-2" stroke="#979797" fill="#D4AF37" points="5582 236 5523.22147 266.901699 5534.44717 201.45085 5486.89435 155.098301 5552.61074 145.54915 5582 86 5611.38926 145.54915 5677.10565 155.098301 5629.55283 201.45085 5640.77853 266.901699"></polygon>
            <polygon id="Star-Copy-3" stroke="#979797" fill="#D4AF37" points="5821 236 5762.22147 266.901699 5773.44717 201.45085 5725.89435 155.098301 5791.61074 145.54915 5821 86 5850.38926 145.54915 5916.10565 155.098301 5868.55283 201.45085 5879.77853 266.901699"></polygon>
            <polygon id="Star-Copy-4" stroke="#979797" fill="#E5E5E5" points="6060 236 6001.22147 266.901699 6012.44717 201.45085 5964.89435 155.098301 6030.61074 145.54915 6060 86 6089.38926 145.54915 6155.10565 155.098301 6107.55283 201.45085 6118.77853 266.901699"></polygon>
            <text id="Do-people-interact-w" font-family="Raleway-Medium, Raleway" font-size="150" font-weight="400" fill="#000000">
                <tspan x="178" y="256">Do people interact with Wellesley/Olin students? Or not?</tspan>
            </text>
        </g>
    </g>
</svg>