<?xml version="1.0" encoding="UTF-8"?>
<svg width="1234px" height="1120px" viewBox="0 0 1234 1120" version="1.1" xmlns="http://www.w3.org/2000/svg" xmlns:xlink="http://www.w3.org/1999/xlink">
    <!-- Generator: Sketch 45.2 (43514) - http://www.bohemiancoding.com/sketch -->
    <title>Main logo Other Copy 3</title>
    <desc>Created with Sketch.</desc>
    <defs></defs>
    <g id="FINAL-LOGO" stroke="none" stroke-width="1" fill="none" fill-rule="evenodd">
        <g id="Main-logo-Other-Copy-3">
            <path d="M1232.87576,772.113596 C1233.12195,774.040998 1233.24887,776.005678 1233.24887,778 L1233.24887,1073.08087 C1233.24887,1098.48597 1212.65397,1119.08087 1187.24887,1119.08087 L46,1119.08087 C20.5949015,1119.08087 1.02166546e-14,1098.48597 7.10542736e-15,1073.08087 L0,778 L7.10542736e-15,778 C6.74986075e-15,775.096578 0.268991269,772.255983 0.78341224,769.501775 C0.693407604,768.326391 0.647576765,767.138645 0.647576765,765.940195 L0.647576765,46.0345277 L0.647576765,46.0345277 C0.647576765,20.6294292 21.2424783,0.0345276914 46.6475768,0.0345276914 L46.6475768,0.0345276914 L1187.28644,0.0345276914 L1187.28644,0.0345276914 C1212.69154,0.0345276914 1233.28644,20.6294292 1233.28644,46.0345277 L1233.28644,765.940195 L1233.28644,765.940195 C1233.28644,768.0336 1233.14661,770.094345 1232.87576,772.113596 Z" id="Combined-Shape" fill="#4095AA"></path>
            <g id="New-logo-Copy" transform="translate(100.000000, 783.000000)" font-size="250" font-family="Raleway-ExtraBold, Raleway" letter-spacing="6.25" fill="#FFFFFF" font-weight="600">
                <text id="QUONVO">
                    <tspan x="0.235" y="235">Q</tspan>
                    <tspan x="196.235" y="235" font-size="220">UONVO</tspan>
                </text>
            </g>
            <g id="Q-chat-version" transform="translate(293.000000, 75.000000)" fill="#FFFFFF">
                <path d="M579.945891,496.651658 L600.734701,656.57685 L453.526619,604.718229 C412.319477,624.261137 366.235136,635.194392 317.597196,635.194392 C142.193108,635.194392 0,493.001284 0,317.597196 C0,142.193108 142.193108,0 317.597196,0 C493.001284,0 635.194392,142.193108 635.194392,317.597196 C635.194392,384.01643 614.805818,445.673657 579.945891,496.651658 Z M319.010443,549.996241 C448.053548,549.996241 552.663654,445.386135 552.663654,316.34303 C552.663654,187.299925 448.053548,82.689819 319.010443,82.689819 C189.967338,82.689819 85.3572326,187.299925 85.3572326,316.34303 C85.3572326,445.386135 189.967338,549.996241 319.010443,549.996241 Z" id="Combined-Shape"></path>
            </g>
        </g>
    </g>
</svg>